<svg xmlns="http://www.w3.org/2000/svg" viewBox="0 0 1440 900" preserveAspectRatio="xMidYMid slice" role="img" aria-label="Цахим засаглалыг бүтээх суурь — иргэн төвтэй холбогдсон төрийн үйлчилгээ">
  <defs>
    <radialGradient id="glowGold" cx="50%" cy="50%" r="50%">
      <stop offset="0%" stop-color="#E4B24A" stop-opacity="0.45"/>
      <stop offset="100%" stop-color="#E4B24A" stop-opacity="0"/>
    </radialGradient>
    <radialGradient id="glowBlue" cx="50%" cy="50%" r="50%">
      <stop offset="0%" stop-color="#3B82F6" stop-opacity="0.40"/>
      <stop offset="100%" stop-color="#3B82F6" stop-opacity="0"/>
    </radialGradient>
    <linearGradient id="towerFill" x1="0" y1="0" x2="0" y2="1">
      <stop offset="0%" stop-color="#16294f"/>
      <stop offset="100%" stop-color="#0b1730"/>
    </linearGradient>
    <linearGradient id="baseFill" x1="0" y1="0" x2="0" y2="1">
      <stop offset="0%" stop-color="#1b3160"/>
      <stop offset="100%" stop-color="#0d1c3a"/>
    </linearGradient>
    <linearGradient id="ridge" x1="0" y1="0" x2="1" y2="0">
      <stop offset="0%" stop-color="#12203f"/>
      <stop offset="100%" stop-color="#0c1830"/>
    </linearGradient>
    <linearGradient id="vignette" x1="0" y1="0" x2="1" y2="1">
      <stop offset="0%" stop-color="#0a1531" stop-opacity="0.85"/>
      <stop offset="45%" stop-color="#0a1531" stop-opacity="0.15"/>
      <stop offset="100%" stop-color="#0a1531" stop-opacity="0.55"/>
    </linearGradient>
    <filter id="soft" x="-40%" y="-40%" width="180%" height="180%">
      <feGaussianBlur stdDeviation="10"/>
    </filter>
  </defs>

  <!-- Атмосферын гэрэлтэлт -->
  <circle cx="1080" cy="330" r="360" fill="url(#glowGold)"/>
  <circle cx="330" cy="250" r="420" fill="url(#glowBlue)"/>
  <circle cx="880" cy="600" r="300" fill="url(#glowBlue)" opacity="0.6"/>

  <!-- Уулын дүрс (Монгол тал) -->
  <path d="M0 760 L220 660 L430 730 L650 620 L900 720 L1150 640 L1440 740 L1440 900 L0 900 Z" fill="url(#ridge)" opacity="0.9"/>
  <path d="M0 800 L280 720 L520 780 L780 690 L1040 780 L1300 710 L1440 770 L1440 900 L0 900 Z" fill="#0a1730"/>

  <!-- Суурь давхаргууд (платформ / суурь) -->
  <g opacity="0.95">
    <rect x="700" y="742" width="510" height="26" rx="6" fill="url(#baseFill)" stroke="#26467f" stroke-width="1.5"/>
    <rect x="742" y="720" width="426" height="24" rx="5" fill="#13284d" stroke="#294a86" stroke-width="1.5"/>
    <rect x="764" y="700" width="382" height="22" rx="5" fill="#16294f" stroke="#2c5093" stroke-width="1.5"/>
    <rect x="742" y="765" width="426" height="4" fill="#E4B24A" opacity="0.55"/>
  </g>

  <!-- Иргэний барилга: портик (багана) + цамхаг -->
  <g stroke="#3f5f9e" stroke-width="2" fill="url(#towerFill)">
    <!-- фронтон -->
    <path d="M812 700 L812 610 L955 556 L1098 610 L1098 700 Z"/>
    <path d="M800 560 L955 500 L1110 560 L1098 610 L812 610 Z" fill="#16294f"/>
    <!-- багануудын capital -->
    <rect x="820" y="600" width="278" height="12" fill="#1b345f"/>
  </g>
  <!-- багана -->
  <g fill="#0f2244" stroke="#33538f" stroke-width="1.5">
    <rect x="832" y="612" width="20" height="88" rx="3"/>
    <rect x="878" y="612" width="20" height="88" rx="3"/>
    <rect x="924" y="612" width="20" height="88" rx="3"/>
    <rect x="970" y="612" width="20" height="88" rx="3"/>
    <rect x="1016" y="612" width="20" height="88" rx="3"/>
    <rect x="1062" y="612" width="20" height="88" rx="3"/>
  </g>
  <!-- Соёмбо-гэсэн гал (фронтон дээр) -->
  <g transform="translate(955 512)" fill="#E4B24A">
    <path d="M0 -22 C6 -12 6 -6 0 2 C-6 -6 -6 -12 0 -22 Z"/>
    <path d="M-9 -14 C-6 -8 -6 -4 -9 1 C-13 -4 -12 -9 -9 -14 Z" opacity="0.9"/>
    <path d="M9 -14 C12 -8 12 -4 9 1 C6 -4 6 -9 9 -14 Z" opacity="0.9"/>
    <circle cx="0" cy="10" r="4"/>
  </g>

  <!-- Цамхаг (орчин үеийн блок) -->
  <g fill="url(#towerFill)" stroke="#33538f" stroke-width="2">
    <rect x="884" y="360" width="142" height="200" rx="6"/>
  </g>
  <!-- цонхнууд (алт/цэнхэр) -->
  <g>
    <g fill="#E4B24A" opacity="0.85">
      <rect x="902" y="386" width="18" height="18" rx="2"/>
      <rect x="962" y="410" width="18" height="18" rx="2"/>
      <rect x="992" y="470" width="18" height="18" rx="2"/>
      <rect x="902" y="500" width="18" height="18" rx="2"/>
    </g>
    <g fill="#5f93ef" opacity="0.8">
      <rect x="932" y="386" width="18" height="18" rx="2"/>
      <rect x="992" y="386" width="18" height="18" rx="2"/>
      <rect x="902" y="440" width="18" height="18" rx="2"/>
      <rect x="932" y="440" width="18" height="18" rx="2"/>
      <rect x="962" y="470" width="18" height="18" rx="2"/>
      <rect x="932" y="500" width="18" height="18" rx="2"/>
      <rect x="962" y="530" width="18" height="18" rx="2"/>
      <rect x="992" y="530" width="18" height="18" rx="2"/>
    </g>
  </g>

  <!-- Хамгаалалтын нум (аюулгүй байдал) -->
  <path d="M690 470 A330 330 0 0 1 1250 470" fill="none" stroke="#E4B24A" stroke-width="1.6" stroke-dasharray="2 10" opacity="0.5"/>

  <!-- Холбогдсон үйлчилгээний сүлжээ (nodes + lines) -->
  <g stroke="#5f93ef" stroke-width="1.4" opacity="0.55">
    <line x1="955" y1="360" x2="1180" y2="250"/>
    <line x1="955" y1="360" x2="1210" y2="430"/>
    <line x1="955" y1="360" x2="760" y2="300"/>
    <line x1="955" y1="360" x2="640" y2="430"/>
    <line x1="1180" y1="250" x2="1210" y2="430"/>
    <line x1="760" y1="300" x2="640" y2="430"/>
    <line x1="1180" y1="250" x2="1290" y2="360"/>
  </g>
  <g>
    <circle cx="1180" cy="250" r="8" fill="#E4B24A"/>
    <circle cx="1210" cy="430" r="7" fill="#5f93ef"/>
    <circle cx="760" cy="300" r="7" fill="#5f93ef"/>
    <circle cx="640" cy="430" r="8" fill="#E4B24A"/>
    <circle cx="1290" cy="360" r="6" fill="#5f93ef"/>
    <circle cx="1180" cy="250" r="16" fill="none" stroke="#E4B24A" stroke-width="1.2" opacity="0.5"/>
    <circle cx="640" cy="430" r="16" fill="none" stroke="#E4B24A" stroke-width="1.2" opacity="0.5"/>
  </g>

  <!-- Хөвөгч модулиуд (зургаан өнцөгт — template боломжууд) -->
  <g fill="none" stroke="#7ea6f2" stroke-width="1.6" opacity="0.5">
    <path d="M300 560 l26 15 v30 l-26 15 l-26 -15 v-30 z"/>
    <path d="M500 210 l22 13 v26 l-22 13 l-22 -13 v-26 z"/>
    <path d="M1120 640 l22 13 v26 l-22 13 l-22 -13 v-26 z"/>
  </g>

  <!-- Дижитал бөөмс -->
  <g fill="#9ab8f5" opacity="0.7">
    <circle cx="230" cy="360" r="3"/>
    <circle cx="410" cy="470" r="2.5"/>
    <circle cx="360" cy="180" r="2.5"/>
    <circle cx="1330" cy="500" r="3"/>
    <circle cx="1260" cy="600" r="2.5"/>
    <circle cx="560" cy="360" r="2.5"/>
  </g>

  <!-- Текстийн уншигдац хадгалах давхарга (зүүн талыг бараандуулна) -->
  <rect x="0" y="0" width="1440" height="900" fill="url(#vignette)"/>
</svg>
